<svg width="24" height="23" viewBox="0 0 24 23" fill="none" xmlns="http://www.w3.org/2000/svg">
<path d="M23 0.5H1C0.734784 0.5 0.48043 0.605357 0.292893 0.792893C0.105357 0.98043 0 1.23478 0 1.5V20.5C0 21.0304 0.210714 21.5391 0.585786 21.9142C0.960859 22.2893 1.46957 22.5 2 22.5H7C7.53043 22.5 8.03914 22.2893 8.41421 21.9142C8.78929 21.5391 9 21.0304 9 20.5V14.5H15V16.5C15 17.0304 15.2107 17.5391 15.5858 17.9142C15.9609 18.2893 16.4696 18.5 17 18.5H22C22.5304 18.5 23.0391 18.2893 23.4142 17.9142C23.7893 17.5391 24 17.0304 24 16.5V1.5C24 1.23478 23.8946 0.98043 23.7071 0.792893C23.5196 0.605357 23.2652 0.5 23 0.5ZM7 20.5H2V10.5H7V20.5ZM7 8.5H2V2.5H7V8.5ZM15 12.5H9V2.5H15V12.5ZM22 16.5H17V10.5H22V16.5ZM22 8.5H17V2.5H22V8.5Z" fill="#EBEBE6"/>
</svg>
